<svg xmlns="http://www.w3.org/2000/svg" viewBox="0 0 512 512"><circle cx="256" cy="256" r="256" fill="#386895"/><path d="M322.719 135.716c-15.591 53.403-37.552 104.486-39.136 159.934-17.941 8.073-20.477 25.488-22.183 44.46v-27.22l-94.201 20.497 62.209 62.209c-1.569.04-3.072.041-4.436.041-39.862 1.476-80.255-.05-118.672 9.726l102.255 102.231A257.35 257.35 0 0 0 256.002 512c120.17 0 220.982-82.806 248.537-194.465l-181.82-181.819z" fill="#273b7a"/><path d="M256 408.566c-5.711 0-10.343-4.632-10.343-10.343V312.89c0-5.711 4.632-10.343 10.343-10.343s10.343 4.632 10.343 10.343v85.333c0 5.711-4.63 10.343-10.343 10.343z" fill="#ffedb5"/><path d="M256 302.545v106.02c5.711 0 10.343-4.632 10.343-10.343v-85.333c0-5.711-4.63-10.344-10.343-10.344z" fill="#fee187"/><path fill="#71e2ef" d="M298.384 111.382H167.198v222.004h177.604V157.799z"/><path fill="#38c6d9" d="M344.802 157.799l-46.418-46.417H256v222.004h88.802z"/><path fill="#1d9da0" d="M298.384 157.799h46.418l-46.418-46.417z"/><path d="M113.778 387.879c-5.711 0-10.343 4.632-10.343 10.343s4.632 10.343 10.343 10.343h142.798v-20.687H113.778z" fill="#ffedb5"/><path d="M398.222 387.879H256.576v20.687h141.646c5.711 0 10.343-4.632 10.343-10.343.001-5.712-4.631-10.344-10.343-10.344z" fill="#fee187"/><path fill="#ffc61b" d="M227.556 369.778h56.889v56.889h-56.889z"/><path fill="#d48b07" d="M256 369.778h28.444v56.889H256z"/></svg>